<svg xmlns="http://www.w3.org/2000/svg" xmlns:xlink="http://www.w3.org/1999/xlink" width="551" zoomAndPan="magnify" viewBox="0 0 413.25 213" height="284" preserveAspectRatio="xMidYMid meet" version="1.0"><defs><g/><clipPath id="311beebdf9"><path d="M 0 70.496094 L 71.121094 70.496094 L 71.121094 141.617188 L 0 141.617188 Z M 0 70.496094 " clip-rule="nonzero"/></clipPath></defs><g clip-path="url(#311beebdf9)"><path fill="#1b4332" d="M 71.257812 106.125 C 71.257812 107.292969 71.199219 108.457031 71.085938 109.617188 C 70.972656 110.777344 70.800781 111.929688 70.570312 113.074219 C 70.34375 114.21875 70.0625 115.351562 69.722656 116.46875 C 69.382812 117.585938 68.992188 118.679688 68.542969 119.757812 C 68.097656 120.835938 67.601562 121.890625 67.050781 122.921875 C 66.5 123.949219 65.902344 124.949219 65.253906 125.917969 C 64.605469 126.890625 63.910156 127.824219 63.167969 128.726562 C 62.429688 129.628906 61.648438 130.492188 60.820312 131.316406 C 59.996094 132.144531 59.132812 132.925781 58.230469 133.667969 C 57.328125 134.40625 56.394531 135.101562 55.421875 135.75 C 54.453125 136.398438 53.453125 136.996094 52.421875 137.546875 C 51.394531 138.097656 50.339844 138.59375 49.261719 139.042969 C 48.183594 139.488281 47.085938 139.878906 45.972656 140.21875 C 44.855469 140.558594 43.722656 140.839844 42.578125 141.070312 C 41.433594 141.296875 40.28125 141.46875 39.121094 141.582031 C 37.960938 141.695312 36.796875 141.753906 35.628906 141.753906 C 34.460938 141.753906 33.296875 141.695312 32.136719 141.582031 C 30.976562 141.46875 29.820312 141.296875 28.675781 141.070312 C 27.53125 140.839844 26.402344 140.558594 25.285156 140.21875 C 24.167969 139.878906 23.070312 139.488281 21.992188 139.042969 C 20.914062 138.59375 19.863281 138.097656 18.832031 137.546875 C 17.804688 136.996094 16.804688 136.398438 15.835938 135.75 C 14.863281 135.101562 13.929688 134.40625 13.027344 133.667969 C 12.125 132.925781 11.261719 132.144531 10.433594 131.316406 C 9.609375 130.492188 8.828125 129.628906 8.085938 128.726562 C 7.347656 127.824219 6.652344 126.890625 6.003906 125.917969 C 5.355469 124.949219 4.757812 123.949219 4.207031 122.921875 C 3.65625 121.890625 3.160156 120.835938 2.710938 119.757812 C 2.265625 118.679688 1.871094 117.585938 1.535156 116.46875 C 1.195312 115.351562 0.914062 114.21875 0.683594 113.074219 C 0.457031 111.929688 0.285156 110.777344 0.171875 109.617188 C 0.0585938 108.457031 0 107.292969 0 106.125 C 0 104.957031 0.0585938 103.792969 0.171875 102.632812 C 0.285156 101.472656 0.457031 100.320312 0.683594 99.175781 C 0.914062 98.03125 1.195312 96.898438 1.535156 95.78125 C 1.871094 94.667969 2.265625 93.570312 2.710938 92.492188 C 3.160156 91.414062 3.65625 90.359375 4.207031 89.332031 C 4.757812 88.300781 5.355469 87.300781 6.003906 86.332031 C 6.652344 85.359375 7.347656 84.425781 8.085938 83.523438 C 8.828125 82.621094 9.609375 81.757812 10.433594 80.933594 C 11.261719 80.105469 12.125 79.324219 13.027344 78.585938 C 13.929688 77.84375 14.863281 77.148438 15.835938 76.5 C 16.804688 75.851562 17.804688 75.253906 18.832031 74.703125 C 19.863281 74.152344 20.914062 73.65625 21.992188 73.210938 C 23.070312 72.761719 24.167969 72.371094 25.285156 72.03125 C 26.402344 71.691406 27.53125 71.410156 28.675781 71.179688 C 29.820312 70.953125 30.976562 70.78125 32.136719 70.667969 C 33.296875 70.554688 34.460938 70.496094 35.628906 70.496094 C 36.796875 70.496094 37.960938 70.554688 39.121094 70.667969 C 40.28125 70.78125 41.433594 70.953125 42.578125 71.179688 C 43.722656 71.410156 44.855469 71.691406 45.972656 72.03125 C 47.085938 72.371094 48.183594 72.761719 49.261719 73.210938 C 50.339844 73.65625 51.394531 74.152344 52.421875 74.703125 C 53.453125 75.253906 54.453125 75.851562 55.421875 76.5 C 56.394531 77.148438 57.328125 77.84375 58.230469 78.585938 C 59.132812 79.324219 59.996094 80.105469 60.820312 80.933594 C 61.648438 81.757812 62.429688 82.621094 63.167969 83.523438 C 63.910156 84.425781 64.605469 85.359375 65.253906 86.332031 C 65.902344 87.300781 66.5 88.300781 67.050781 89.332031 C 67.601562 90.359375 68.097656 91.414062 68.542969 92.492188 C 68.992188 93.570312 69.382812 94.667969 69.722656 95.78125 C 70.0625 96.898438 70.34375 98.03125 70.570312 99.175781 C 70.800781 100.320312 70.972656 101.472656 71.085938 102.632812 C 71.199219 103.792969 71.257812 104.957031 71.257812 106.125 Z M 71.257812 106.125 " fill-opacity="1" fill-rule="nonzero"/></g><path fill="#3e8d69" d="M 31.851562 118.765625 L 35.339844 115.28125 C 36.089844 114.53125 37.3125 114.53125 38.058594 115.28125 C 38.8125 116.03125 38.8125 117.25 38.058594 118 L 32.242188 123.824219 C 30.339844 125.726562 27.773438 126.777344 25.085938 126.777344 C 22.398438 126.777344 19.832031 125.726562 17.929688 123.824219 C 16.027344 121.921875 14.980469 119.355469 14.980469 116.667969 C 14.980469 113.980469 16.027344 111.414062 17.929688 109.515625 L 25.410156 102.035156 C 25.414062 102.03125 25.421875 102.023438 25.425781 102.019531 C 27.324219 100.144531 29.863281 99.101562 32.535156 99.101562 C 35.226562 99.101562 37.785156 100.164062 39.6875 102.066406 C 40 102.378906 40.289062 102.710938 40.558594 103.0625 C 40.828125 103.410156 41.074219 103.777344 41.292969 104.160156 C 41.824219 105.074219 41.507812 106.257812 40.59375 106.789062 C 39.675781 107.316406 38.492188 107 37.964844 106.085938 C 37.828125 105.847656 37.675781 105.617188 37.511719 105.402344 C 37.34375 105.183594 37.160156 104.980469 36.96875 104.785156 C 35.785156 103.605469 34.203125 102.949219 32.535156 102.949219 C 30.867188 102.949219 29.28125 103.605469 28.101562 104.785156 L 20.652344 112.234375 C 19.472656 113.414062 18.828125 115.003906 18.828125 116.667969 C 18.828125 118.332031 19.472656 119.921875 20.652344 121.101562 C 21.832031 122.28125 23.421875 122.925781 25.085938 122.925781 C 26.75 122.925781 28.339844 122.28125 29.519531 121.101562 Z M 31.851562 118.765625 " fill-opacity="1" fill-rule="evenodd"/><path fill="#3e8d69" d="M 39.402344 93.484375 L 35.917969 96.96875 C 35.167969 97.722656 33.945312 97.722656 33.195312 96.96875 C 32.445312 96.222656 32.445312 95 33.195312 94.25 L 39.019531 88.429688 C 40.917969 86.527344 43.484375 85.476562 46.171875 85.476562 C 48.859375 85.476562 51.421875 86.527344 53.324219 88.429688 C 55.226562 90.332031 56.28125 92.894531 56.28125 95.582031 C 56.28125 98.269531 55.226562 100.835938 53.324219 102.738281 L 45.847656 110.214844 C 45.84375 110.222656 45.835938 110.226562 45.832031 110.230469 C 43.933594 112.105469 41.394531 113.148438 38.722656 113.148438 C 36.03125 113.148438 33.472656 112.089844 31.570312 110.183594 C 31.257812 109.871094 30.964844 109.539062 30.699219 109.191406 C 30.429688 108.839844 30.183594 108.472656 29.960938 108.089844 C 29.433594 107.175781 29.75 105.992188 30.664062 105.460938 C 31.582031 104.933594 32.761719 105.25 33.292969 106.164062 C 33.429688 106.402344 33.578125 106.632812 33.746094 106.847656 C 33.914062 107.066406 34.097656 107.269531 34.289062 107.464844 C 35.46875 108.644531 37.054688 109.300781 38.722656 109.300781 C 40.390625 109.300781 41.976562 108.644531 43.15625 107.464844 L 50.605469 100.015625 C 51.78125 98.835938 52.429688 97.246094 52.429688 95.582031 C 52.429688 93.917969 51.78125 92.328125 50.605469 91.148438 C 49.425781 89.96875 47.835938 89.324219 46.171875 89.324219 C 44.503906 89.324219 42.917969 89.96875 41.738281 91.148438 Z M 39.402344 93.484375 " fill-opacity="1" fill-rule="evenodd"/><g fill="#3e8d69" fill-opacity="1"><g transform="translate(87.977047, 133.831999)"><g><path d="M 18.703125 -63.109375 C 20.972656 -64.628906 23.253906 -65.367188 25.546875 -65.328125 C 27.847656 -65.296875 29.847656 -64.554688 31.546875 -63.109375 C 33.253906 -61.660156 34.375 -59.628906 34.90625 -57.015625 C 35.445312 -54.398438 35.148438 -51.269531 34.015625 -47.625 C 32.441406 -42.269531 29.671875 -37.414062 25.703125 -33.0625 C 21.734375 -28.71875 16.660156 -25.253906 10.484375 -22.671875 C 9.472656 -17.890625 9.25 -13.921875 9.8125 -10.765625 C 10.382812 -7.617188 12.1875 -5.921875 15.21875 -5.671875 C 17.539062 -5.484375 19.789062 -6.128906 21.96875 -7.609375 C 24.144531 -9.085938 26.144531 -11.019531 27.96875 -13.40625 C 29.789062 -15.800781 31.332031 -18.320312 32.59375 -20.96875 C 32.78125 -21.351562 33.171875 -21.429688 33.765625 -21.203125 C 34.367188 -20.984375 34.921875 -20.65625 35.421875 -20.21875 C 35.929688 -19.78125 36.09375 -19.367188 35.90625 -18.984375 C 34.070312 -15.273438 32.066406 -11.8125 29.890625 -8.59375 C 27.722656 -5.382812 25.144531 -2.894531 22.15625 -1.125 C 19.164062 0.632812 15.53125 1.289062 11.25 0.84375 C 8.03125 0.46875 5.570312 -0.628906 3.875 -2.453125 C 2.175781 -4.285156 1.070312 -6.679688 0.5625 -9.640625 C 0.0625 -12.597656 0.015625 -15.96875 0.421875 -19.75 C 0.835938 -23.53125 1.546875 -27.5625 2.546875 -31.84375 C 3.617188 -36.375 4.957031 -40.71875 6.5625 -44.875 C 8.164062 -49.03125 9.992188 -52.710938 12.046875 -55.921875 C 14.097656 -59.140625 16.316406 -61.535156 18.703125 -63.109375 Z M 25.234375 -57.921875 C 23.972656 -57.984375 22.695312 -56.894531 21.40625 -54.65625 C 20.113281 -52.425781 18.804688 -49.609375 17.484375 -46.203125 C 16.660156 -44.179688 15.726562 -41.628906 14.6875 -38.546875 C 13.65625 -35.460938 12.726562 -32.410156 11.90625 -29.390625 C 14.425781 -31.085938 16.722656 -33.304688 18.796875 -36.046875 C 20.878906 -38.785156 22.550781 -41.601562 23.8125 -44.5 C 25.382812 -48.09375 26.34375 -51.210938 26.6875 -53.859375 C 27.039062 -56.503906 26.554688 -57.859375 25.234375 -57.921875 Z M 25.234375 -57.921875 "/></g></g></g><g fill="#3e8d69" fill-opacity="1"><g transform="translate(119.907644, 133.831999)"><g><path d="M 13.140625 -45.734375 C 11.554688 -45.734375 10.273438 -46.28125 9.296875 -47.375 C 8.328125 -48.476562 7.96875 -49.851562 8.21875 -51.5 C 8.53125 -53.195312 9.285156 -54.578125 10.484375 -55.640625 C 11.679688 -56.710938 13.160156 -57.21875 14.921875 -57.15625 C 16.628906 -57.15625 17.953125 -56.617188 18.890625 -55.546875 C 19.835938 -54.484375 20.1875 -53.132812 19.9375 -51.5 C 19.75 -49.789062 19.039062 -48.398438 17.8125 -47.328125 C 16.582031 -46.265625 15.023438 -45.734375 13.140625 -45.734375 Z M 5.953125 0.84375 C 2.046875 0.90625 -0.441406 -0.128906 -1.515625 -2.265625 C -2.585938 -4.410156 -2.710938 -7.304688 -1.890625 -10.953125 C -0.816406 -15.429688 0.316406 -19.78125 1.515625 -24 C 2.710938 -28.21875 4.128906 -33.191406 5.765625 -38.921875 C 6.140625 -39.492188 6.832031 -39.859375 7.84375 -40.015625 C 8.851562 -40.171875 9.921875 -40.171875 11.046875 -40.015625 C 12.179688 -39.859375 13.191406 -39.570312 14.078125 -39.15625 C 14.960938 -38.75 15.5 -38.265625 15.6875 -37.703125 C 14.488281 -33.359375 13.445312 -29.65625 12.5625 -26.59375 C 11.6875 -23.539062 10.929688 -20.878906 10.296875 -18.609375 C 9.671875 -16.347656 9.101562 -14.144531 8.59375 -12 C 8.21875 -10.113281 8.0625 -8.585938 8.125 -7.421875 C 8.1875 -6.253906 8.722656 -5.703125 9.734375 -5.765625 C 11.179688 -5.765625 12.769531 -6.488281 14.5 -7.9375 C 16.238281 -9.382812 17.910156 -11.253906 19.515625 -13.546875 C 21.117188 -15.847656 22.457031 -18.289062 23.53125 -20.875 C 23.71875 -21.320312 24.125 -21.429688 24.75 -21.203125 C 25.382812 -20.984375 25.9375 -20.65625 26.40625 -20.21875 C 26.875 -19.78125 27.015625 -19.335938 26.828125 -18.890625 C 25.828125 -16.753906 24.648438 -14.550781 23.296875 -12.28125 C 21.941406 -10.007812 20.378906 -7.878906 18.609375 -5.890625 C 16.847656 -3.910156 14.910156 -2.304688 12.796875 -1.078125 C 10.691406 0.140625 8.410156 0.78125 5.953125 0.84375 Z M 5.953125 0.84375 "/></g></g></g><g fill="#3e8d69" fill-opacity="1"><g transform="translate(142.76919, 133.831999)"><g><path d="M 29.390625 -40.25 C 32.972656 -40.1875 35.285156 -38.925781 36.328125 -36.46875 C 37.367188 -34.007812 37.445312 -30.859375 36.5625 -27.015625 C 36.0625 -24.878906 35.382812 -22.550781 34.53125 -20.03125 C 33.6875 -17.507812 33.007812 -15.113281 32.5 -12.84375 C 32.125 -11.082031 31.921875 -9.460938 31.890625 -7.984375 C 31.859375 -6.503906 32.441406 -5.765625 33.640625 -5.765625 C 34.960938 -5.765625 36.394531 -6.457031 37.9375 -7.84375 C 39.476562 -9.226562 41.019531 -11.066406 42.5625 -13.359375 C 44.101562 -15.660156 45.441406 -18.164062 46.578125 -20.875 C 46.765625 -21.257812 47.15625 -21.351562 47.75 -21.15625 C 48.351562 -20.96875 48.90625 -20.65625 49.40625 -20.21875 C 49.914062 -19.78125 50.078125 -19.367188 49.890625 -18.984375 C 48.941406 -16.910156 47.789062 -14.738281 46.4375 -12.46875 C 45.082031 -10.207031 43.554688 -8.066406 41.859375 -6.046875 C 40.160156 -4.035156 38.300781 -2.382812 36.28125 -1.09375 C 34.269531 0.195312 32.128906 0.84375 29.859375 0.84375 C 26.265625 0.90625 23.851562 0.0078125 22.625 -1.84375 C 21.394531 -3.695312 21.066406 -6.171875 21.640625 -9.265625 C 21.765625 -10.078125 22.015625 -11.238281 22.390625 -12.75 C 22.765625 -14.257812 23.15625 -15.910156 23.5625 -17.703125 C 23.976562 -19.503906 24.390625 -21.207031 24.796875 -22.8125 C 25.210938 -24.425781 25.515625 -25.703125 25.703125 -26.640625 C 26.015625 -28.085938 26.15625 -29.441406 26.125 -30.703125 C 26.09375 -31.960938 25.257812 -32.5625 23.625 -32.5 C 22.550781 -32.5 21.304688 -32.039062 19.890625 -31.125 C 18.472656 -30.21875 17.070312 -29.070312 15.6875 -27.6875 C 14.300781 -26.300781 13.007812 -24.820312 11.8125 -23.25 C 10.925781 -20.28125 10.179688 -17.660156 9.578125 -15.390625 C 8.984375 -13.128906 8.4375 -10.878906 7.9375 -8.640625 C 7.4375 -6.410156 6.835938 -3.878906 6.140625 -1.046875 C 5.890625 -0.535156 5.210938 -0.140625 4.109375 0.140625 C 3.003906 0.421875 1.804688 0.546875 0.515625 0.515625 C -0.773438 0.484375 -1.90625 0.28125 -2.875 -0.09375 C -3.851562 -0.46875 -4.375 -1.035156 -4.4375 -1.796875 C -2.925781 -8.097656 -1.351562 -14.144531 0.28125 -19.9375 C 1.914062 -25.726562 3.679688 -32.054688 5.578125 -38.921875 C 5.953125 -39.429688 6.628906 -39.796875 7.609375 -40.015625 C 8.585938 -40.234375 9.625 -40.28125 10.71875 -40.15625 C 11.820312 -40.03125 12.8125 -39.757812 13.6875 -39.34375 C 14.570312 -38.9375 15.144531 -38.359375 15.40625 -37.609375 C 14.957031 -36.097656 14.609375 -34.835938 14.359375 -33.828125 C 14.109375 -32.816406 13.765625 -31.617188 13.328125 -30.234375 C 14.453125 -31.554688 15.863281 -33.003906 17.5625 -34.578125 C 19.269531 -36.148438 21.144531 -37.503906 23.1875 -38.640625 C 25.238281 -39.773438 27.304688 -40.3125 29.390625 -40.25 Z M 29.390625 -40.25 "/></g></g></g><g fill="#3e8d69" fill-opacity="1"><g transform="translate(188.681224, 133.831999)"><g><path d="M 43.84375 -20.96875 C 44.03125 -21.351562 44.421875 -21.429688 45.015625 -21.203125 C 45.617188 -20.984375 46.15625 -20.65625 46.625 -20.21875 C 47.101562 -19.78125 47.242188 -19.367188 47.046875 -18.984375 C 45.222656 -15.148438 43.144531 -11.734375 40.8125 -8.734375 C 38.488281 -5.742188 36.003906 -3.398438 33.359375 -1.703125 C 30.710938 -0.00390625 27.972656 0.875 25.140625 0.9375 C 23.179688 0.9375 21.300781 0.4375 19.5 -0.5625 C 17.707031 -1.570312 16.304688 -3.476562 15.296875 -6.28125 C 14.296875 -9.082031 13.953125 -13.160156 14.265625 -18.515625 C 18.359375 -20.023438 21.472656 -21.738281 23.609375 -23.65625 C 25.753906 -25.582031 27.015625 -27.378906 27.390625 -29.046875 C 27.773438 -30.722656 27.242188 -31.84375 25.796875 -32.40625 C 24.785156 -32.90625 23.539062 -32.921875 22.0625 -32.453125 C 20.582031 -31.984375 19.070312 -31.117188 17.53125 -29.859375 C 15.988281 -28.597656 14.585938 -27.082031 13.328125 -25.3125 C 12.066406 -23.550781 11.179688 -21.664062 10.671875 -19.65625 C 9.671875 -15.75 8.789062 -12.347656 8.03125 -9.453125 C 7.269531 -6.554688 6.609375 -3.816406 6.046875 -1.234375 C 5.796875 -0.660156 5.101562 -0.21875 3.96875 0.09375 C 2.832031 0.40625 1.585938 0.578125 0.234375 0.609375 C -1.117188 0.640625 -2.265625 0.453125 -3.203125 0.046875 C -4.148438 -0.359375 -4.59375 -0.972656 -4.53125 -1.796875 C -2.519531 -9.734375 -0.445312 -17.554688 1.6875 -25.265625 C 3.832031 -32.984375 5.894531 -40.179688 7.875 -46.859375 C 9.863281 -53.535156 11.617188 -59.332031 13.140625 -64.25 C 13.453125 -64.6875 14.109375 -64.96875 15.109375 -65.09375 C 16.117188 -65.21875 17.238281 -65.171875 18.46875 -64.953125 C 19.695312 -64.734375 20.75 -64.382812 21.625 -63.90625 C 22.507812 -63.4375 22.953125 -62.859375 22.953125 -62.171875 C 22.515625 -60.660156 21.914062 -58.644531 21.15625 -56.125 C 20.40625 -53.601562 19.570312 -50.847656 18.65625 -47.859375 C 17.75 -44.867188 16.851562 -41.921875 15.96875 -39.015625 C 15.082031 -36.117188 14.359375 -33.570312 13.796875 -31.375 C 16.066406 -34.332031 18.601562 -36.535156 21.40625 -37.984375 C 24.207031 -39.429688 26.863281 -40.171875 29.375 -40.203125 C 31.894531 -40.234375 33.851562 -39.617188 35.25 -38.359375 C 36.695312 -37.097656 37.515625 -35.472656 37.703125 -33.484375 C 37.890625 -31.503906 37.445312 -29.410156 36.375 -27.203125 C 35.300781 -25.003906 33.613281 -22.957031 31.3125 -21.0625 C 29.019531 -19.175781 26.109375 -17.695312 22.578125 -16.625 C 22.515625 -13.351562 22.890625 -10.722656 23.703125 -8.734375 C 24.523438 -6.753906 25.976562 -5.765625 28.0625 -5.765625 C 30.832031 -5.703125 33.554688 -6.894531 36.234375 -9.34375 C 38.910156 -11.800781 41.445312 -15.675781 43.84375 -20.96875 Z M 43.84375 -20.96875 "/></g></g></g><g fill="#3e8d69" fill-opacity="1"><g transform="translate(231.759191, 133.831999)"><g><path d="M 23.8125 -40.25 C 28.03125 -40.3125 31.253906 -39.378906 33.484375 -37.453125 C 35.722656 -35.535156 37.140625 -33.035156 37.734375 -29.953125 C 38.335938 -26.867188 38.210938 -23.53125 37.359375 -19.9375 C 36.515625 -16.34375 35.082031 -12.878906 33.0625 -9.546875 C 35.394531 -9.296875 37.835938 -9.925781 40.390625 -11.4375 C 42.941406 -12.945312 45.222656 -16.09375 47.234375 -20.875 C 47.429688 -21.257812 47.84375 -21.351562 48.46875 -21.15625 C 49.101562 -20.96875 49.65625 -20.671875 50.125 -20.265625 C 50.59375 -19.859375 50.734375 -19.429688 50.546875 -18.984375 C 48.535156 -14.515625 46.332031 -11.253906 43.9375 -9.203125 C 41.539062 -7.160156 39.113281 -5.929688 36.65625 -5.515625 C 34.195312 -5.109375 31.804688 -5.128906 29.484375 -5.578125 C 27.335938 -3.492188 24.957031 -1.882812 22.34375 -0.75 C 19.726562 0.375 16.847656 0.9375 13.703125 0.9375 C 10.679688 0.9375 7.941406 0.3125 5.484375 -0.9375 C 3.023438 -2.195312 1.242188 -4.242188 0.140625 -7.078125 C -0.960938 -9.921875 -1.039062 -13.734375 -0.09375 -18.515625 C 0.789062 -22.859375 2.410156 -26.648438 4.765625 -29.890625 C 7.128906 -33.140625 9.960938 -35.660156 13.265625 -37.453125 C 16.578125 -39.253906 20.09375 -40.1875 23.8125 -40.25 Z M 22.578125 -33.546875 C 20.753906 -33.484375 19.019531 -32.675781 17.375 -31.125 C 15.738281 -29.582031 14.351562 -27.675781 13.21875 -25.40625 C 12.09375 -23.144531 11.273438 -20.816406 10.765625 -18.421875 C 10.390625 -16.472656 10.1875 -14.519531 10.15625 -12.5625 C 10.125 -10.613281 10.46875 -8.992188 11.1875 -7.703125 C 11.914062 -6.410156 13.257812 -5.765625 15.21875 -5.765625 C 16.40625 -5.765625 17.566406 -6.0625 18.703125 -6.65625 C 19.835938 -7.257812 20.816406 -8.066406 21.640625 -9.078125 C 21.066406 -10.015625 20.890625 -10.957031 21.109375 -11.90625 C 21.335938 -12.851562 21.8125 -13.609375 22.53125 -14.171875 C 23.257812 -14.734375 24.0625 -14.921875 24.9375 -14.734375 C 25.882812 -16.941406 26.609375 -19.160156 27.109375 -21.390625 C 27.617188 -23.628906 27.84375 -25.675781 27.78125 -27.53125 C 27.71875 -29.394531 27.273438 -30.894531 26.453125 -32.03125 C 25.640625 -33.164062 24.347656 -33.671875 22.578125 -33.546875 Z M 22.578125 -33.546875 "/></g></g></g><g fill="#3e8d69" fill-opacity="1"><g transform="translate(278.426984, 133.831999)"><g><path d="M 2.453125 -15.875 C 2.265625 -15.5 1.835938 -15.390625 1.171875 -15.546875 C 0.515625 -15.703125 -0.046875 -16 -0.515625 -16.4375 C -0.992188 -16.882812 -1.132812 -17.296875 -0.9375 -17.671875 C 0.3125 -20.253906 1.394531 -22.597656 2.3125 -24.703125 C 3.226562 -26.816406 4.0625 -28.972656 4.8125 -31.171875 C 5.570312 -33.378906 6.332031 -35.835938 7.09375 -38.546875 C 5.695312 -40.566406 4.96875 -42.347656 4.90625 -43.890625 C 4.84375 -45.429688 5.191406 -46.722656 5.953125 -47.765625 C 6.710938 -48.804688 7.640625 -49.515625 8.734375 -49.890625 C 9.835938 -50.265625 10.910156 -50.265625 11.953125 -49.890625 C 12.992188 -49.515625 13.75 -48.710938 14.21875 -47.484375 C 14.6875 -46.253906 14.640625 -44.503906 14.078125 -42.234375 C 15.398438 -40.847656 16.863281 -39.445312 18.46875 -38.03125 C 20.070312 -36.613281 21.519531 -35.164062 22.8125 -33.6875 C 24.101562 -32.207031 24.9375 -30.722656 25.3125 -29.234375 C 25.695312 -27.753906 25.289062 -26.257812 24.09375 -24.75 C 22.332031 -22.488281 20.726562 -20.128906 19.28125 -17.671875 C 17.832031 -15.210938 17.039062 -12.878906 16.90625 -10.671875 C 16.84375 -9.285156 17.09375 -8.132812 17.65625 -7.21875 C 18.226562 -6.3125 19.269531 -5.859375 20.78125 -5.859375 C 22.289062 -5.859375 24.003906 -6.34375 25.921875 -7.3125 C 27.847656 -8.289062 29.800781 -9.898438 31.78125 -12.140625 C 33.769531 -14.378906 35.617188 -17.320312 37.328125 -20.96875 C 37.515625 -21.351562 37.890625 -21.429688 38.453125 -21.203125 C 39.023438 -20.984375 39.5625 -20.65625 40.0625 -20.21875 C 40.5625 -19.78125 40.71875 -19.367188 40.53125 -18.984375 C 38.894531 -15.273438 36.957031 -11.90625 34.71875 -8.875 C 32.488281 -5.851562 29.921875 -3.476562 27.015625 -1.75 C 24.117188 -0.0195312 20.816406 0.84375 17.109375 0.84375 C 13.453125 0.78125 10.707031 -0.207031 8.875 -2.125 C 7.050781 -4.039062 6.140625 -6.453125 6.140625 -9.359375 C 6.140625 -12.378906 6.972656 -15.414062 8.640625 -18.46875 C 10.316406 -21.519531 12.097656 -24.4375 13.984375 -27.21875 C 14.742188 -28.34375 14.914062 -29.425781 14.5 -30.46875 C 14.09375 -31.507812 13.460938 -32.5 12.609375 -33.4375 C 11.765625 -34.382812 10.992188 -35.238281 10.296875 -36 C 9.484375 -32.914062 8.445312 -29.71875 7.1875 -26.40625 C 5.925781 -23.101562 4.347656 -19.59375 2.453125 -15.875 Z M 2.453125 -15.875 "/></g></g></g><g fill="#3e8d69" fill-opacity="1"><g transform="translate(314.986566, 133.831999)"><g><path d="M 22.484375 -39.96875 C 24.566406 -40.34375 26.882812 -40.4375 29.4375 -40.25 C 31.988281 -40.0625 34.472656 -39.523438 36.890625 -38.640625 C 39.316406 -37.765625 41.410156 -36.410156 43.171875 -34.578125 C 43.492188 -34.078125 43.367188 -33.367188 42.796875 -32.453125 C 42.234375 -31.535156 41.539062 -30.742188 40.71875 -30.078125 C 39.90625 -29.421875 39.242188 -29.222656 38.734375 -29.484375 C 36.785156 -31.054688 34.597656 -32.171875 32.171875 -32.828125 C 29.742188 -33.492188 27.429688 -33.671875 25.234375 -33.359375 C 22.523438 -32.972656 19.941406 -31.691406 17.484375 -29.515625 C 15.023438 -27.347656 13.070312 -24.691406 11.625 -21.546875 C 10.175781 -18.453125 9.320312 -15.488281 9.0625 -12.65625 C 8.8125 -9.820312 9.222656 -7.867188 10.296875 -6.796875 C 11.429688 -5.671875 12.816406 -5.59375 14.453125 -6.5625 C 16.085938 -7.539062 17.753906 -9.191406 19.453125 -11.515625 C 21.160156 -13.847656 22.738281 -16.539062 24.1875 -19.59375 C 25.632812 -22.65625 26.769531 -25.695312 27.59375 -28.71875 C 28.03125 -29.289062 28.71875 -29.609375 29.65625 -29.671875 C 30.601562 -29.734375 31.597656 -29.632812 32.640625 -29.375 C 33.679688 -29.125 34.59375 -28.78125 35.375 -28.34375 C 36.164062 -27.90625 36.59375 -27.429688 36.65625 -26.921875 C 36.15625 -25.160156 35.539062 -22.988281 34.8125 -20.40625 C 34.09375 -17.820312 33.507812 -15.363281 33.0625 -13.03125 C 32.0625 -8.4375 32.628906 -6.140625 34.765625 -6.140625 C 35.960938 -6.203125 37.378906 -6.878906 39.015625 -8.171875 C 40.660156 -9.460938 42.300781 -11.222656 43.9375 -13.453125 C 45.570312 -15.691406 46.957031 -18.164062 48.09375 -20.875 C 48.28125 -21.257812 48.671875 -21.351562 49.265625 -21.15625 C 49.867188 -20.96875 50.421875 -20.65625 50.921875 -20.21875 C 51.429688 -19.78125 51.59375 -19.367188 51.40625 -18.984375 C 49.757812 -15.585938 47.847656 -12.40625 45.671875 -9.4375 C 43.503906 -6.476562 41.128906 -4.101562 38.546875 -2.3125 C 35.960938 -0.519531 33.191406 0.375 30.234375 0.375 C 27.960938 0.375 26.257812 -0.644531 25.125 -2.6875 C 24 -4.738281 23.71875 -7.492188 24.28125 -10.953125 C 23.207031 -9.066406 21.976562 -7.222656 20.59375 -5.421875 C 19.207031 -3.628906 17.597656 -2.148438 15.765625 -0.984375 C 13.941406 0.171875 11.742188 0.78125 9.171875 0.84375 C 6.898438 0.84375 4.863281 0.296875 3.0625 -0.796875 C 1.269531 -1.898438 -0.046875 -3.601562 -0.890625 -5.90625 C -1.742188 -8.207031 -1.890625 -11.117188 -1.328125 -14.640625 C -0.628906 -18.859375 0.925781 -22.78125 3.34375 -26.40625 C 5.769531 -30.03125 8.6875 -33.050781 12.09375 -35.46875 C 15.5 -37.894531 18.960938 -39.394531 22.484375 -39.96875 Z M 22.484375 -39.96875 "/></g></g></g></svg>