<svg xmlns="http://www.w3.org/2000/svg" xmlns:xlink="http://www.w3.org/1999/xlink" width="569" zoomAndPan="magnify" viewBox="0 0 426.75 213" height="284" preserveAspectRatio="xMidYMid meet" version="1.0"><defs><g/><clipPath id="e3d7ec63d1"><path d="M 0 64.082031 L 83.949219 64.082031 L 83.949219 148.03125 L 0 148.03125 Z M 0 64.082031 " clip-rule="nonzero"/></clipPath></defs><g clip-path="url(#e3d7ec63d1)"><path fill="#1b4332" d="M 84.085938 106.125 C 84.085938 107.5 84.019531 108.875 83.882812 110.246094 C 83.75 111.617188 83.546875 112.976562 83.277344 114.328125 C 83.007812 115.675781 82.675781 117.011719 82.277344 118.328125 C 81.875 119.648438 81.414062 120.941406 80.886719 122.214844 C 80.359375 123.484375 79.769531 124.730469 79.121094 125.941406 C 78.472656 127.15625 77.765625 128.335938 77 129.480469 C 76.234375 130.628906 75.417969 131.730469 74.542969 132.796875 C 73.667969 133.859375 72.746094 134.878906 71.773438 135.851562 C 70.796875 136.828125 69.777344 137.75 68.714844 138.625 C 67.648438 139.496094 66.546875 140.316406 65.402344 141.082031 C 64.257812 141.847656 63.078125 142.554688 61.863281 143.203125 C 60.648438 143.851562 59.402344 144.441406 58.132812 144.96875 C 56.859375 145.492188 55.566406 145.957031 54.246094 146.355469 C 52.929688 146.757812 51.59375 147.089844 50.246094 147.359375 C 48.894531 147.628906 47.535156 147.828125 46.164062 147.964844 C 44.792969 148.101562 43.421875 148.167969 42.042969 148.167969 C 40.667969 148.167969 39.292969 148.101562 37.921875 147.964844 C 36.550781 147.828125 35.191406 147.628906 33.839844 147.359375 C 32.492188 147.089844 31.15625 146.757812 29.839844 146.355469 C 28.519531 145.957031 27.226562 145.492188 25.953125 144.96875 C 24.683594 144.441406 23.4375 143.851562 22.222656 143.203125 C 21.007812 142.554688 19.828125 141.847656 18.683594 141.082031 C 17.539062 140.316406 16.4375 139.496094 15.371094 138.625 C 14.308594 137.75 13.289062 136.828125 12.3125 135.851562 C 11.339844 134.878906 10.417969 133.859375 9.542969 132.796875 C 8.667969 131.730469 7.851562 130.628906 7.085938 129.480469 C 6.320312 128.335938 5.613281 127.15625 4.964844 125.945312 C 4.316406 124.730469 3.726562 123.484375 3.199219 122.214844 C 2.671875 120.941406 2.210938 119.648438 1.808594 118.328125 C 1.410156 117.011719 1.078125 115.675781 0.808594 114.328125 C 0.539062 112.976562 0.335938 111.617188 0.203125 110.246094 C 0.0664062 108.875 0 107.5 0 106.125 C 0 104.746094 0.0664062 103.375 0.203125 102.003906 C 0.335938 100.632812 0.539062 99.273438 0.808594 97.921875 C 1.078125 96.570312 1.410156 95.238281 1.808594 93.921875 C 2.210938 92.601562 2.671875 91.308594 3.199219 90.035156 C 3.726562 88.761719 4.316406 87.519531 4.964844 86.304688 C 5.613281 85.089844 6.320312 83.910156 7.085938 82.765625 C 7.851562 81.621094 8.667969 80.515625 9.542969 79.453125 C 10.417969 78.386719 11.339844 77.371094 12.3125 76.394531 C 13.289062 75.421875 14.308594 74.5 15.371094 73.625 C 16.4375 72.75 17.539062 71.933594 18.683594 71.167969 C 19.828125 70.402344 21.007812 69.695312 22.222656 69.046875 C 23.4375 68.398438 24.683594 67.808594 25.953125 67.28125 C 27.226562 66.753906 28.519531 66.292969 29.839844 65.890625 C 31.15625 65.492188 32.492188 65.15625 33.839844 64.890625 C 35.191406 64.621094 36.550781 64.417969 37.921875 64.285156 C 39.292969 64.148438 40.667969 64.082031 42.042969 64.082031 C 43.421875 64.082031 44.792969 64.148438 46.164062 64.285156 C 47.535156 64.417969 48.894531 64.621094 50.246094 64.890625 C 51.59375 65.15625 52.929688 65.492188 54.246094 65.890625 C 55.566406 66.292969 56.859375 66.753906 58.132812 67.28125 C 59.402344 67.808594 60.648438 68.398438 61.863281 69.046875 C 63.078125 69.695312 64.257812 70.402344 65.402344 71.167969 C 66.546875 71.933594 67.648438 72.75 68.714844 73.625 C 69.777344 74.5 70.796875 75.421875 71.773438 76.394531 C 72.746094 77.371094 73.667969 78.386719 74.542969 79.453125 C 75.417969 80.515625 76.234375 81.621094 77 82.765625 C 77.765625 83.910156 78.472656 85.089844 79.121094 86.304688 C 79.769531 87.519531 80.359375 88.761719 80.886719 90.035156 C 81.414062 91.308594 81.875 92.601562 82.277344 93.921875 C 82.675781 95.238281 83.007812 96.570312 83.277344 97.921875 C 83.546875 99.273438 83.75 100.632812 83.882812 102.003906 C 84.019531 103.375 84.085938 104.746094 84.085938 106.125 Z M 84.085938 106.125 " fill-opacity="1" fill-rule="nonzero"/></g><path fill="#47a076" d="M 37.589844 121.042969 L 41.703125 116.925781 C 42.585938 116.042969 44.027344 116.042969 44.914062 116.925781 C 45.800781 117.8125 45.800781 119.253906 44.914062 120.136719 L 38.046875 127.007812 C 35.800781 129.253906 32.773438 130.496094 29.601562 130.496094 C 26.429688 130.496094 23.40625 129.253906 21.160156 127.007812 C 18.914062 124.761719 17.675781 121.738281 17.675781 118.566406 C 17.675781 115.394531 18.914062 112.367188 21.160156 110.125 L 29.984375 101.296875 C 29.992188 101.289062 30 101.285156 30.003906 101.28125 C 32.242188 99.066406 35.242188 97.835938 38.390625 97.835938 C 41.566406 97.835938 44.589844 99.089844 46.832031 101.335938 C 47.199219 101.703125 47.542969 102.097656 47.859375 102.507812 C 48.175781 102.921875 48.46875 103.355469 48.730469 103.804688 C 49.355469 104.886719 48.980469 106.28125 47.902344 106.90625 C 46.820312 107.53125 45.425781 107.15625 44.800781 106.078125 C 44.640625 105.796875 44.460938 105.527344 44.261719 105.273438 C 44.066406 105.015625 43.851562 104.773438 43.621094 104.542969 C 42.230469 103.152344 40.359375 102.378906 38.390625 102.378906 C 36.421875 102.378906 34.554688 103.152344 33.160156 104.542969 L 24.371094 113.335938 C 22.980469 114.726562 22.21875 116.601562 22.21875 118.566406 C 22.21875 120.53125 22.980469 122.40625 24.371094 123.796875 C 25.761719 125.1875 27.636719 125.949219 29.601562 125.949219 C 31.566406 125.949219 33.441406 125.1875 34.832031 123.796875 Z M 37.589844 121.042969 " fill-opacity="1" fill-rule="evenodd"/><path fill="#47a076" d="M 46.496094 91.207031 L 42.382812 95.320312 C 41.5 96.207031 40.058594 96.207031 39.171875 95.320312 C 38.289062 94.4375 38.289062 92.996094 39.171875 92.109375 L 46.042969 85.242188 C 48.285156 82.996094 51.3125 81.757812 54.484375 81.757812 C 57.65625 81.757812 60.679688 82.996094 62.925781 85.242188 C 65.171875 87.484375 66.414062 90.511719 66.414062 93.683594 C 66.414062 96.855469 65.171875 99.882812 62.925781 102.125 L 54.101562 110.953125 C 54.09375 110.957031 54.089844 110.964844 54.082031 110.96875 C 51.84375 113.179688 48.84375 114.410156 45.695312 114.410156 C 42.519531 114.410156 39.496094 113.164062 37.253906 110.914062 C 36.886719 110.546875 36.542969 110.152344 36.226562 109.742188 C 35.910156 109.328125 35.617188 108.894531 35.355469 108.441406 C 34.730469 107.363281 35.105469 105.96875 36.183594 105.34375 C 37.265625 104.71875 38.660156 105.089844 39.285156 106.171875 C 39.449219 106.453125 39.625 106.722656 39.824219 106.976562 C 40.019531 107.234375 40.234375 107.476562 40.464844 107.703125 C 41.855469 109.097656 43.726562 109.871094 45.695312 109.871094 C 47.664062 109.871094 49.53125 109.097656 50.925781 107.703125 L 59.714844 98.914062 C 61.105469 97.523438 61.867188 95.648438 61.867188 93.683594 C 61.867188 91.71875 61.105469 89.84375 59.714844 88.453125 C 58.324219 87.0625 56.449219 86.296875 54.484375 86.296875 C 52.519531 86.296875 50.644531 87.0625 49.253906 88.453125 Z M 46.496094 91.207031 " fill-opacity="1" fill-rule="evenodd"/><g fill="#2b654b" fill-opacity="1"><g transform="translate(101.577208, 133.865572)"><g><path d="M 18.734375 -63.1875 C 21.003906 -64.695312 23.289062 -65.4375 25.59375 -65.40625 C 27.894531 -65.375 29.894531 -64.632812 31.59375 -63.1875 C 33.289062 -61.738281 34.40625 -59.703125 34.9375 -57.078125 C 35.476562 -54.460938 35.179688 -51.328125 34.046875 -47.671875 C 32.472656 -42.316406 29.695312 -37.460938 25.71875 -33.109375 C 21.75 -28.753906 16.675781 -25.285156 10.5 -22.703125 C 9.488281 -17.910156 9.265625 -13.9375 9.828125 -10.78125 C 10.398438 -7.625 12.203125 -5.921875 15.234375 -5.671875 C 17.566406 -5.484375 19.816406 -6.128906 21.984375 -7.609375 C 24.160156 -9.097656 26.164062 -11.039062 28 -13.4375 C 29.832031 -15.832031 31.378906 -18.351562 32.640625 -21 C 32.828125 -21.375 33.21875 -21.453125 33.8125 -21.234375 C 34.414062 -21.015625 34.96875 -20.679688 35.46875 -20.234375 C 35.976562 -19.796875 36.140625 -19.390625 35.953125 -19.015625 C 34.117188 -15.296875 32.113281 -11.828125 29.9375 -8.609375 C 27.757812 -5.390625 25.171875 -2.894531 22.171875 -1.125 C 19.179688 0.632812 15.539062 1.289062 11.25 0.84375 C 8.039062 0.46875 5.582031 -0.628906 3.875 -2.453125 C 2.175781 -4.285156 1.070312 -6.679688 0.5625 -9.640625 C 0.0625 -12.609375 0.015625 -15.984375 0.421875 -19.765625 C 0.835938 -23.554688 1.546875 -27.59375 2.546875 -31.875 C 3.617188 -36.414062 4.957031 -40.765625 6.5625 -44.921875 C 8.175781 -49.085938 10.007812 -52.78125 12.0625 -56 C 14.113281 -59.21875 16.335938 -61.613281 18.734375 -63.1875 Z M 25.25 -57.984375 C 23.988281 -58.046875 22.710938 -56.957031 21.421875 -54.71875 C 20.128906 -52.476562 18.820312 -49.65625 17.5 -46.25 C 16.675781 -44.238281 15.742188 -41.6875 14.703125 -38.59375 C 13.671875 -35.5 12.742188 -32.441406 11.921875 -29.421875 C 14.441406 -31.117188 16.742188 -33.335938 18.828125 -36.078125 C 20.910156 -38.828125 22.582031 -41.648438 23.84375 -44.546875 C 25.414062 -48.148438 26.375 -51.273438 26.71875 -53.921875 C 27.070312 -56.566406 26.582031 -57.921875 25.25 -57.984375 Z M 25.25 -57.984375 "/></g></g></g><g fill="#2b654b" fill-opacity="1"><g transform="translate(133.547027, 133.865572)"><g><path d="M 13.15625 -45.78125 C 11.570312 -45.78125 10.289062 -46.332031 9.3125 -47.4375 C 8.332031 -48.539062 7.972656 -49.910156 8.234375 -51.546875 C 8.546875 -53.253906 9.300781 -54.644531 10.5 -55.71875 C 11.695312 -56.789062 13.179688 -57.296875 14.953125 -57.234375 C 16.648438 -57.234375 17.972656 -56.695312 18.921875 -55.625 C 19.867188 -54.550781 20.210938 -53.191406 19.953125 -51.546875 C 19.765625 -49.847656 19.054688 -48.460938 17.828125 -47.390625 C 16.597656 -46.316406 15.039062 -45.78125 13.15625 -45.78125 Z M 5.953125 0.84375 C 2.046875 0.914062 -0.441406 -0.117188 -1.515625 -2.265625 C -2.585938 -4.410156 -2.710938 -7.3125 -1.890625 -10.96875 C -0.816406 -15.445312 0.316406 -19.796875 1.515625 -24.015625 C 2.710938 -28.242188 4.128906 -33.226562 5.765625 -38.96875 C 6.148438 -39.539062 6.84375 -39.90625 7.84375 -40.0625 C 8.851562 -40.21875 9.925781 -40.21875 11.0625 -40.0625 C 12.195312 -39.90625 13.207031 -39.617188 14.09375 -39.203125 C 14.976562 -38.796875 15.515625 -38.3125 15.703125 -37.75 C 14.503906 -33.394531 13.460938 -29.6875 12.578125 -26.625 C 11.691406 -23.570312 10.929688 -20.910156 10.296875 -18.640625 C 9.671875 -16.367188 9.109375 -14.160156 8.609375 -12.015625 C 8.234375 -10.117188 8.078125 -8.585938 8.140625 -7.421875 C 8.203125 -6.253906 8.738281 -5.703125 9.75 -5.765625 C 11.195312 -5.765625 12.785156 -6.488281 14.515625 -7.9375 C 16.253906 -9.394531 17.925781 -11.273438 19.53125 -13.578125 C 21.144531 -15.878906 22.484375 -18.320312 23.546875 -20.90625 C 23.742188 -21.34375 24.15625 -21.453125 24.78125 -21.234375 C 25.414062 -21.015625 25.96875 -20.679688 26.4375 -20.234375 C 26.90625 -19.796875 27.046875 -19.359375 26.859375 -18.921875 C 25.847656 -16.773438 24.664062 -14.566406 23.3125 -12.296875 C 21.957031 -10.023438 20.394531 -7.894531 18.625 -5.90625 C 16.863281 -3.925781 14.925781 -2.320312 12.8125 -1.09375 C 10.707031 0.132812 8.421875 0.78125 5.953125 0.84375 Z M 5.953125 0.84375 "/></g></g></g><g fill="#2b654b" fill-opacity="1"><g transform="translate(156.436655, 133.865572)"><g><path d="M 29.421875 -40.296875 C 33.015625 -40.234375 35.332031 -38.972656 36.375 -36.515625 C 37.414062 -34.054688 37.492188 -30.898438 36.609375 -27.046875 C 36.097656 -24.910156 35.414062 -22.578125 34.5625 -20.046875 C 33.71875 -17.523438 33.046875 -15.128906 32.546875 -12.859375 C 32.160156 -11.097656 31.953125 -9.472656 31.921875 -7.984375 C 31.890625 -6.503906 32.472656 -5.765625 33.671875 -5.765625 C 34.992188 -5.765625 36.425781 -6.457031 37.96875 -7.84375 C 39.519531 -9.238281 41.066406 -11.085938 42.609375 -13.390625 C 44.160156 -15.691406 45.503906 -18.195312 46.640625 -20.90625 C 46.828125 -21.28125 47.21875 -21.375 47.8125 -21.1875 C 48.414062 -21 48.96875 -20.679688 49.46875 -20.234375 C 49.976562 -19.796875 50.140625 -19.390625 49.953125 -19.015625 C 49.003906 -16.929688 47.847656 -14.753906 46.484375 -12.484375 C 45.128906 -10.210938 43.597656 -8.066406 41.890625 -6.046875 C 40.191406 -4.035156 38.332031 -2.382812 36.3125 -1.09375 C 34.300781 0.195312 32.160156 0.84375 29.890625 0.84375 C 26.296875 0.914062 23.882812 0.0195312 22.65625 -1.84375 C 21.425781 -3.707031 21.09375 -6.179688 21.65625 -9.265625 C 21.78125 -10.085938 22.03125 -11.253906 22.40625 -12.765625 C 22.789062 -14.285156 23.1875 -15.941406 23.59375 -17.734375 C 24.007812 -19.535156 24.421875 -21.238281 24.828125 -22.84375 C 25.242188 -24.445312 25.546875 -25.722656 25.734375 -26.671875 C 26.046875 -28.117188 26.1875 -29.472656 26.15625 -30.734375 C 26.125 -32.003906 25.289062 -32.609375 23.65625 -32.546875 C 22.582031 -32.546875 21.332031 -32.085938 19.90625 -31.171875 C 18.488281 -30.253906 17.085938 -29.101562 15.703125 -27.71875 C 14.316406 -26.332031 13.023438 -24.847656 11.828125 -23.265625 C 10.941406 -20.304688 10.195312 -17.691406 9.59375 -15.421875 C 9 -13.148438 8.445312 -10.894531 7.9375 -8.65625 C 7.4375 -6.414062 6.84375 -3.878906 6.15625 -1.046875 C 5.894531 -0.535156 5.210938 -0.140625 4.109375 0.140625 C 3.003906 0.421875 1.804688 0.546875 0.515625 0.515625 C -0.773438 0.484375 -1.90625 0.28125 -2.875 -0.09375 C -3.851562 -0.46875 -4.378906 -1.035156 -4.453125 -1.796875 C -2.929688 -8.097656 -1.351562 -14.148438 0.28125 -19.953125 C 1.925781 -25.753906 3.691406 -32.09375 5.578125 -38.96875 C 5.960938 -39.476562 6.640625 -39.84375 7.609375 -40.0625 C 8.585938 -40.28125 9.628906 -40.328125 10.734375 -40.203125 C 11.835938 -40.078125 12.832031 -39.804688 13.71875 -39.390625 C 14.601562 -38.984375 15.171875 -38.398438 15.421875 -37.640625 C 14.972656 -36.128906 14.625 -34.867188 14.375 -33.859375 C 14.125 -32.847656 13.78125 -31.648438 13.34375 -30.265625 C 14.476562 -31.585938 15.894531 -33.035156 17.59375 -34.609375 C 19.300781 -36.191406 21.175781 -37.550781 23.21875 -38.6875 C 25.269531 -39.820312 27.335938 -40.359375 29.421875 -40.296875 Z M 29.421875 -40.296875 "/></g></g></g><g fill="#2b654b" fill-opacity="1"><g transform="translate(202.405084, 133.865572)"><g><path d="M 43.890625 -21 C 44.078125 -21.375 44.46875 -21.453125 45.0625 -21.234375 C 45.664062 -21.015625 46.203125 -20.679688 46.671875 -20.234375 C 47.148438 -19.796875 47.296875 -19.390625 47.109375 -19.015625 C 45.273438 -15.171875 43.191406 -11.75 40.859375 -8.75 C 38.523438 -5.75 36.035156 -3.398438 33.390625 -1.703125 C 30.742188 -0.00390625 28 0.878906 25.15625 0.953125 C 23.207031 0.953125 21.332031 0.445312 19.53125 -0.5625 C 17.738281 -1.570312 16.335938 -3.476562 15.328125 -6.28125 C 14.316406 -9.09375 13.96875 -13.179688 14.28125 -18.546875 C 18.382812 -20.054688 21.503906 -21.769531 23.640625 -23.6875 C 25.785156 -25.613281 27.046875 -27.410156 27.421875 -29.078125 C 27.804688 -30.753906 27.273438 -31.878906 25.828125 -32.453125 C 24.816406 -32.953125 23.566406 -32.960938 22.078125 -32.484375 C 20.597656 -32.015625 19.085938 -31.148438 17.546875 -29.890625 C 16.003906 -28.628906 14.601562 -27.113281 13.34375 -25.34375 C 12.082031 -23.582031 11.195312 -21.691406 10.6875 -19.671875 C 9.675781 -15.765625 8.789062 -12.359375 8.03125 -9.453125 C 7.28125 -6.554688 6.617188 -3.816406 6.046875 -1.234375 C 5.796875 -0.660156 5.101562 -0.21875 3.96875 0.09375 C 2.832031 0.40625 1.585938 0.578125 0.234375 0.609375 C -1.117188 0.640625 -2.269531 0.453125 -3.21875 0.046875 C -4.164062 -0.359375 -4.609375 -0.972656 -4.546875 -1.796875 C -2.523438 -9.742188 -0.441406 -17.578125 1.703125 -25.296875 C 3.847656 -33.023438 5.910156 -40.234375 7.890625 -46.921875 C 9.878906 -53.609375 11.632812 -59.410156 13.15625 -64.328125 C 13.46875 -64.765625 14.128906 -65.046875 15.140625 -65.171875 C 16.148438 -65.296875 17.269531 -65.25 18.5 -65.03125 C 19.726562 -64.8125 20.78125 -64.460938 21.65625 -63.984375 C 22.539062 -63.515625 22.984375 -62.9375 22.984375 -62.25 C 22.546875 -60.726562 21.945312 -58.707031 21.1875 -56.1875 C 20.425781 -53.664062 19.585938 -50.90625 18.671875 -47.90625 C 17.765625 -44.914062 16.867188 -41.96875 15.984375 -39.0625 C 15.097656 -36.164062 14.375 -33.613281 13.8125 -31.40625 C 16.082031 -34.363281 18.617188 -36.566406 21.421875 -38.015625 C 24.234375 -39.472656 26.898438 -40.21875 29.421875 -40.25 C 31.941406 -40.28125 33.894531 -39.664062 35.28125 -38.40625 C 36.726562 -37.144531 37.546875 -35.519531 37.734375 -33.53125 C 37.929688 -31.539062 37.492188 -29.441406 36.421875 -27.234375 C 35.347656 -25.035156 33.660156 -22.988281 31.359375 -21.09375 C 29.054688 -19.195312 26.140625 -17.71875 22.609375 -16.65625 C 22.546875 -13.375 22.921875 -10.738281 23.734375 -8.75 C 24.554688 -6.757812 26.007812 -5.765625 28.09375 -5.765625 C 30.863281 -5.703125 33.585938 -6.898438 36.265625 -9.359375 C 38.953125 -11.816406 41.492188 -15.695312 43.890625 -21 Z M 43.890625 -21 "/></g></g></g><g fill="#2b654b" fill-opacity="1"><g transform="translate(245.535966, 133.865572)"><g><path d="M 23.84375 -40.296875 C 28.0625 -40.359375 31.289062 -39.425781 33.53125 -37.5 C 35.769531 -35.582031 37.1875 -33.078125 37.78125 -29.984375 C 38.382812 -26.890625 38.257812 -23.546875 37.40625 -19.953125 C 36.5625 -16.359375 35.128906 -12.890625 33.109375 -9.546875 C 35.441406 -9.296875 37.882812 -9.925781 40.4375 -11.4375 C 42.988281 -12.957031 45.273438 -16.113281 47.296875 -20.90625 C 47.484375 -21.28125 47.890625 -21.375 48.515625 -21.1875 C 49.148438 -21 49.703125 -20.695312 50.171875 -20.28125 C 50.648438 -19.875 50.796875 -19.453125 50.609375 -19.015625 C 48.585938 -14.535156 46.378906 -11.269531 43.984375 -9.21875 C 41.585938 -7.175781 39.160156 -5.945312 36.703125 -5.53125 C 34.242188 -5.125 31.847656 -5.140625 29.515625 -5.578125 C 27.367188 -3.492188 24.988281 -1.882812 22.375 -0.75 C 19.757812 0.382812 16.875 0.953125 13.71875 0.953125 C 10.6875 0.953125 7.941406 0.320312 5.484375 -0.9375 C 3.023438 -2.207031 1.242188 -4.257812 0.140625 -7.09375 C -0.960938 -9.925781 -1.039062 -13.742188 -0.09375 -18.546875 C 0.789062 -22.890625 2.414062 -26.6875 4.78125 -29.9375 C 7.144531 -33.1875 9.976562 -35.707031 13.28125 -37.5 C 16.59375 -39.300781 20.113281 -40.234375 23.84375 -40.296875 Z M 22.609375 -33.578125 C 20.773438 -33.515625 19.039062 -32.707031 17.40625 -31.15625 C 15.769531 -29.613281 14.382812 -27.707031 13.25 -25.4375 C 12.113281 -23.175781 11.289062 -20.847656 10.78125 -18.453125 C 10.40625 -16.492188 10.203125 -14.535156 10.171875 -12.578125 C 10.140625 -10.628906 10.484375 -9.003906 11.203125 -7.703125 C 11.929688 -6.410156 13.273438 -5.765625 15.234375 -5.765625 C 16.429688 -5.765625 17.597656 -6.0625 18.734375 -6.65625 C 19.867188 -7.257812 20.84375 -8.066406 21.65625 -9.078125 C 21.09375 -10.023438 20.921875 -10.972656 21.140625 -11.921875 C 21.359375 -12.867188 21.832031 -13.625 22.5625 -14.1875 C 23.289062 -14.757812 24.09375 -14.945312 24.96875 -14.75 C 25.914062 -16.957031 26.640625 -19.179688 27.140625 -21.421875 C 27.648438 -23.660156 27.875 -25.707031 27.8125 -27.5625 C 27.75 -29.425781 27.304688 -30.925781 26.484375 -32.0625 C 25.660156 -33.195312 24.367188 -33.703125 22.609375 -33.578125 Z M 22.609375 -33.578125 "/></g></g></g><g fill="#2b654b" fill-opacity="1"><g transform="translate(292.261083, 133.865572)"><g><path d="M 2.453125 -15.890625 C 2.265625 -15.515625 1.835938 -15.40625 1.171875 -15.5625 C 0.515625 -15.71875 -0.046875 -16.015625 -0.515625 -16.453125 C -0.992188 -16.898438 -1.140625 -17.3125 -0.953125 -17.6875 C 0.316406 -20.269531 1.40625 -22.617188 2.3125 -24.734375 C 3.226562 -26.847656 4.0625 -29.007812 4.8125 -31.21875 C 5.570312 -33.425781 6.332031 -35.882812 7.09375 -38.59375 C 5.707031 -40.613281 4.984375 -42.394531 4.921875 -43.9375 C 4.859375 -45.476562 5.203125 -46.769531 5.953125 -47.8125 C 6.710938 -48.851562 7.644531 -49.5625 8.75 -49.9375 C 9.851562 -50.320312 10.925781 -50.320312 11.96875 -49.9375 C 13.007812 -49.5625 13.765625 -48.757812 14.234375 -47.53125 C 14.710938 -46.300781 14.664062 -44.550781 14.09375 -42.28125 C 15.414062 -40.894531 16.878906 -39.492188 18.484375 -38.078125 C 20.097656 -36.660156 21.550781 -35.207031 22.84375 -33.71875 C 24.132812 -32.238281 24.96875 -30.753906 25.34375 -29.265625 C 25.726562 -27.785156 25.320312 -26.289062 24.125 -24.78125 C 22.351562 -22.507812 20.742188 -20.144531 19.296875 -17.6875 C 17.847656 -15.226562 17.0625 -12.894531 16.9375 -10.6875 C 16.875 -9.300781 17.125 -8.148438 17.6875 -7.234375 C 18.257812 -6.316406 19.300781 -5.859375 20.8125 -5.859375 C 22.320312 -5.859375 24.035156 -6.347656 25.953125 -7.328125 C 27.878906 -8.304688 29.835938 -9.914062 31.828125 -12.15625 C 33.816406 -14.394531 35.660156 -17.34375 37.359375 -21 C 37.546875 -21.375 37.921875 -21.453125 38.484375 -21.234375 C 39.054688 -21.015625 39.59375 -20.679688 40.09375 -20.234375 C 40.601562 -19.796875 40.765625 -19.390625 40.578125 -19.015625 C 38.941406 -15.296875 37.003906 -11.921875 34.765625 -8.890625 C 32.523438 -5.859375 29.953125 -3.476562 27.046875 -1.75 C 24.148438 -0.0195312 20.84375 0.84375 17.125 0.84375 C 13.46875 0.78125 10.722656 -0.207031 8.890625 -2.125 C 7.066406 -4.050781 6.15625 -6.460938 6.15625 -9.359375 C 6.15625 -12.390625 6.988281 -15.429688 8.65625 -18.484375 C 10.320312 -21.546875 12.101562 -24.46875 14 -27.25 C 14.757812 -28.382812 14.929688 -29.46875 14.515625 -30.5 C 14.109375 -31.539062 13.476562 -32.535156 12.625 -33.484375 C 11.769531 -34.429688 11 -35.285156 10.3125 -36.046875 C 9.488281 -32.953125 8.445312 -29.75 7.1875 -26.4375 C 5.925781 -23.125 4.347656 -19.609375 2.453125 -15.890625 Z M 2.453125 -15.890625 "/></g></g></g><g fill="#2b654b" fill-opacity="1"><g transform="translate(328.865571, 133.865572)"><g><path d="M 22.515625 -40.015625 C 24.597656 -40.390625 26.914062 -40.484375 29.46875 -40.296875 C 32.019531 -40.109375 34.507812 -39.570312 36.9375 -38.6875 C 39.363281 -37.800781 41.460938 -36.445312 43.234375 -34.625 C 43.546875 -34.113281 43.414062 -33.398438 42.84375 -32.484375 C 42.28125 -31.578125 41.585938 -30.789062 40.765625 -30.125 C 39.953125 -29.46875 39.289062 -29.265625 38.78125 -29.515625 C 36.820312 -31.085938 34.628906 -32.203125 32.203125 -32.859375 C 29.773438 -33.523438 27.457031 -33.703125 25.25 -33.390625 C 22.539062 -33.015625 19.957031 -31.738281 17.5 -29.5625 C 15.039062 -27.382812 13.085938 -24.71875 11.640625 -21.5625 C 10.179688 -18.476562 9.328125 -15.515625 9.078125 -12.671875 C 8.828125 -9.835938 9.238281 -7.882812 10.3125 -6.8125 C 11.445312 -5.675781 12.832031 -5.597656 14.46875 -6.578125 C 16.113281 -7.554688 17.785156 -9.210938 19.484375 -11.546875 C 21.191406 -13.878906 22.769531 -16.570312 24.21875 -19.625 C 25.664062 -22.6875 26.800781 -25.726562 27.625 -28.75 C 28.0625 -29.320312 28.753906 -29.640625 29.703125 -29.703125 C 30.648438 -29.765625 31.644531 -29.671875 32.6875 -29.421875 C 33.726562 -29.171875 34.640625 -28.820312 35.421875 -28.375 C 36.210938 -27.9375 36.640625 -27.460938 36.703125 -26.953125 C 36.203125 -25.191406 35.585938 -23.015625 34.859375 -20.421875 C 34.128906 -17.835938 33.546875 -15.378906 33.109375 -13.046875 C 32.097656 -8.453125 32.664062 -6.15625 34.8125 -6.15625 C 36.007812 -6.21875 37.425781 -6.894531 39.0625 -8.1875 C 40.707031 -9.476562 42.347656 -11.242188 43.984375 -13.484375 C 45.628906 -15.722656 47.015625 -18.195312 48.140625 -20.90625 C 48.335938 -21.28125 48.734375 -21.375 49.328125 -21.1875 C 49.929688 -21 50.484375 -20.679688 50.984375 -20.234375 C 51.492188 -19.796875 51.648438 -19.390625 51.453125 -19.015625 C 49.816406 -15.609375 47.910156 -12.421875 45.734375 -9.453125 C 43.554688 -6.492188 41.175781 -4.113281 38.59375 -2.3125 C 36.007812 -0.519531 33.234375 0.375 30.265625 0.375 C 27.992188 0.375 26.289062 -0.644531 25.15625 -2.6875 C 24.019531 -4.738281 23.738281 -7.5 24.3125 -10.96875 C 23.238281 -9.082031 22.007812 -7.238281 20.625 -5.4375 C 19.238281 -3.644531 17.628906 -2.164062 15.796875 -1 C 13.960938 0.164062 11.753906 0.78125 9.171875 0.84375 C 6.898438 0.84375 4.863281 0.296875 3.0625 -0.796875 C 1.269531 -1.898438 -0.046875 -3.601562 -0.890625 -5.90625 C -1.742188 -8.207031 -1.890625 -11.125 -1.328125 -14.65625 C -0.628906 -18.882812 0.929688 -22.8125 3.359375 -26.4375 C 5.785156 -30.0625 8.703125 -33.085938 12.109375 -35.515625 C 15.515625 -37.941406 18.984375 -39.441406 22.515625 -40.015625 Z M 22.515625 -40.015625 "/></g></g></g></svg>